<svg width="64" height="64" viewBox="0 0 64 64" fill="none" xmlns="http://www.w3.org/2000/svg">
<path d="M32 0C18.7 0 8 10.7 8 24C8 29.2 9.7 34 12.6 37.9C12.6 38 12.6 38.1 12.7 38.2L28.7 62.2C29.4 63.3 30.7 64 32 64C33.3 64 34.6 63.3 35.3 62.2L51.3 38.2C51.4 38.1 51.4 38 51.4 37.9C54.3 34 56 29.2 56 24C56 10.7 45.3 0 32 0ZM32 32C27.6 32 24 28.4 24 24C24 19.6 27.6 16 32 16C36.4 16 40 19.6 40 24C40 28.4 36.4 32 32 32Z" fill="#FFC300"/>
<path fill-rule="evenodd" clip-rule="evenodd" d="M42 13V35H22V13H42Z" fill="#FFC300"/>
<g clip-path="url(#clip0_1_2)">
<path d="M36.625 13.5312C37.4455 13.5312 38.2324 13.8572 38.8126 14.4374C39.3928 15.0176 39.7187 15.8045 39.7187 16.625V29.0385H41.7812V16.625C41.7812 15.2575 41.238 13.946 40.271 12.979C39.304 12.012 37.9925 11.4688 36.625 11.4688H22.875C22.6015 11.4688 22.3392 11.5774 22.1458 11.7708C21.9524 11.9642 21.8438 12.2265 21.8438 12.5C21.8438 12.7735 21.9524 13.0358 22.1458 13.2292C22.3392 13.4226 22.6015 13.5312 22.875 13.5312C24.1386 13.5312 24.5938 13.9864 24.5938 15.25V30.375C24.5938 31.0521 24.7271 31.7226 24.9862 32.3482C25.2454 32.9738 25.6252 33.5422 26.104 34.021C26.5828 34.4998 27.1512 34.8796 27.7768 35.1387C28.4024 35.3979 29.0729 35.5312 29.75 35.5312H40.75V33.4687H29.75C28.9295 33.4687 28.1426 33.1428 27.5624 32.5626C26.9822 31.9824 26.6563 31.1955 26.6563 30.375V15.25C26.6667 14.6636 26.5664 14.0805 26.3606 13.5312H36.625Z" fill="white"/>
<path d="M29.7706 35.5313C30.5738 35.5816 31.3759 35.4171 32.0944 35.0546C32.8129 34.6921 33.4218 34.1447 33.8585 33.4688H29.7555C31.8909 33.4688 32.8438 32.0938 32.8438 28.9986C32.8441 28.725 32.9531 28.4627 33.1467 28.2693C33.3403 28.076 33.6027 27.9674 33.8764 27.9674H44.8764C45.1498 27.9677 45.4119 28.0765 45.6052 28.2698C45.7985 28.4632 45.9073 28.7252 45.9076 28.9986V30.3736C45.9058 31.7406 45.362 33.0511 44.3954 34.0177C43.4288 34.9842 42.1183 35.5281 40.7514 35.5299L29.7706 35.5313ZM33.8585 33.4688H40.75C41.5704 33.4677 42.3569 33.1412 42.9369 32.5609C43.5169 31.9807 43.843 31.1941 43.8438 30.3736V30.0313H34.8678C34.817 31.2423 34.4705 32.4225 33.8585 33.4688ZM28.7188 34.5C28.7129 34.3632 28.7356 34.2266 28.7852 34.0989C28.8349 33.9712 28.9106 33.8553 29.0074 33.7584C29.1042 33.6614 29.22 33.5856 29.3476 33.5358C29.4752 33.4859 29.6118 33.4631 29.7486 33.4688V35.5313C29.6117 35.5371 29.4751 35.5144 29.3474 35.4647C29.2197 35.4149 29.1037 35.3391 29.0069 35.2421C28.91 35.1452 28.8344 35.0291 28.7848 34.9014C28.7352 34.7736 28.7127 34.6369 28.7188 34.5ZM20.125 19.0313C19.8516 19.0309 19.5895 18.9221 19.3962 18.7288C19.2029 18.5355 19.0941 18.2734 19.0938 18V15.25C19.0938 14.2472 19.4921 13.2854 20.2013 12.5763C20.9104 11.8671 21.8722 11.4688 22.875 11.4688C23.8779 11.4688 24.8396 11.8671 25.5488 12.5763C26.2579 13.2854 26.6563 14.2472 26.6563 15.25V18C26.6559 18.2734 26.5471 18.5355 26.3538 18.7288C26.1605 18.9221 25.8984 19.0309 25.625 19.0313H20.125ZM21.1563 15.25V16.9688H24.5938V15.25C24.5938 14.7942 24.4127 14.357 24.0903 14.0347C23.768 13.7123 23.3308 13.5313 22.875 13.5313C22.4192 13.5313 21.982 13.7123 21.6597 14.0347C21.3373 14.357 21.1563 14.7942 21.1563 15.25Z" fill="white"/>
</g>
<defs>
<clipPath id="clip0_1_2">
<rect width="33" height="33" fill="white" transform="translate(16 7)"/>
</clipPath>
</defs>
</svg>
