<svg width="64" height="64" viewBox="0 0 64 64" fill="none" xmlns="http://www.w3.org/2000/svg">
<path d="M32 0C18.7 0 8 10.7 8 24C8 29.2 9.7 34 12.6 37.9C12.6 38 12.6 38.1 12.7 38.2L28.7 62.2C29.4 63.3 30.7 64 32 64C33.3 64 34.6 63.3 35.3 62.2L51.3 38.2C51.4 38.1 51.4 38 51.4 37.9C54.3 34 56 29.2 56 24C56 10.7 45.3 0 32 0ZM32 32C27.6 32 24 28.4 24 24C24 19.6 27.6 16 32 16C36.4 16 40 19.6 40 24C40 28.4 36.4 32 32 32Z" fill="#0091FF"/>
<path fill-rule="evenodd" clip-rule="evenodd" d="M42 13V35H22V13H42Z" fill="#0091FF"/>
<path fill-rule="evenodd" clip-rule="evenodd" d="M25.5378 13.4118C23.7269 13.4118 22.3168 14.3365 21.5582 16.0165C21.0168 17.2129 21.0031 18.3935 21.0031 18.5241V33.4112C21.0031 33.4112 22.8185 31.0376 26.0073 33.4112C30.1015 36.2329 31.4811 32.0506 33.2521 33.4112C36.0739 35.9347 37.7104 33.4112 37.7104 33.4112C37.7104 33.4112 37.6905 21.3194 37.7104 21.0035C37.8174 18.9847 38.056 17.1847 38.7213 15.84C39.4631 14.3418 40.4771 13.4135 41.5981 13.4135H25.5378V13.4118Z" fill="white"/>
<path fill-rule="evenodd" clip-rule="evenodd" d="M43.9855 16.4347C43.5313 15.7129 43.0021 15.2876 42.4301 15.2876C41.6195 15.2876 40.8839 16.1382 40.344 17.5112C39.8638 18.7394 39.5395 20.3876 39.4569 22.2335V24.0053C39.6282 27.9141 40.8915 30.9512 42.4301 30.9512C44.0834 30.9512 45.4247 27.4465 45.4247 23.1194C45.4262 20.2853 44.8496 17.8094 43.9855 16.4347ZM42.4316 27.6124C41.6211 27.6124 40.9542 25.8635 40.8655 23.6171V22.5935C40.9099 21.5329 41.0796 20.5835 41.332 19.8829C41.618 19.0835 42.0034 18.5965 42.4332 18.5965C42.7314 18.5965 43.0098 18.8382 43.2484 19.2618C43.7041 20.0488 44.0069 21.4782 44.0069 23.1071C44.0054 25.5953 43.2973 27.6124 42.4316 27.6124Z" fill="white"/>
</svg>
