<svg width="64" height="64" viewBox="0 0 64 64" fill="none" xmlns="http://www.w3.org/2000/svg">
<path d="M32 0C18.7 0 8 10.7 8 24C8 29.2 9.7 34 12.6 37.9C12.6 38 12.6 38.1 12.7 38.2L28.7 62.2C29.4 63.3 30.7 64 32 64C33.3 64 34.6 63.3 35.3 62.2L51.3 38.2C51.4 38.1 51.4 38 51.4 37.9C54.3 34 56 29.2 56 24C56 10.7 45.3 0 32 0ZM32 32C27.6 32 24 28.4 24 24C24 19.6 27.6 16 32 16C36.4 16 40 19.6 40 24C40 28.4 36.4 32 32 32Z" fill="#0F76F4"/>
<path fill-rule="evenodd" clip-rule="evenodd" d="M42 13V35H22V13H42Z" fill="#0F76F4"/>
<path d="M40.7 26.74C38.7936 28.1572 36.4522 28.8646 34.08 28.74H28.58V38H23V12H34.44C36.701 11.879 38.928 12.5904 40.7 14C42.3642 15.6294 43.2086 17.9202 43 20.24C43.2542 22.6428 42.409 25.0318 40.7 26.74ZM36.5 17.4C35.6508 16.7784 34.6104 16.474 33.56 16.54H28.58V24.18H33.56C34.623 24.2452 35.672 23.9098 36.5 23.24C37.259 22.4506 37.6386 21.3708 37.54 20.28C37.648 19.212 37.2654 18.1526 36.5 17.4Z" fill="white"/>
</svg>
