<svg width="64" height="64" viewBox="0 0 64 64" fill="none" xmlns="http://www.w3.org/2000/svg">
<path d="M32 0C18.7 0 8 10.7 8 24C8 29.2 9.7 34 12.6 37.9C12.6 38 12.6 38.1 12.7 38.2L28.7 62.2C29.4 63.3 30.7 64 32 64C33.3 64 34.6 63.3 35.3 62.2L51.3 38.2C51.4 38.1 51.4 38 51.4 37.9C54.3 34 56 29.2 56 24C56 10.7 45.3 0 32 0ZM32 32C27.6 32 24 28.4 24 24C24 19.6 27.6 16 32 16C36.4 16 40 19.6 40 24C40 28.4 36.4 32 32 32Z" fill="#709237"/>
<path fill-rule="evenodd" clip-rule="evenodd" d="M42 13V35H22V13H42Z" fill="#709237"/>
<path d="M34.8828 21.8531C35.4612 19.8853 35.2166 17.7281 34.1497 15.9216C34.1731 15.9544 23.9506 26.2594 23.8775 26.1947C25.6541 27.2438 27.8112 27.5391 29.7528 26.9972C29.7387 26.9475 34.8416 21.8456 34.8828 21.8531ZM33.0594 14.2781C31.6822 12.9206 29.7116 12 27.6275 12C23.4153 12 20 15.4237 20 19.6463C20 21.7069 20.9375 23.7019 22.2594 25.0772C22.2622 25.0772 32.9947 14.3663 33.0594 14.2781ZM43.8462 34.5656C43.8462 34.5656 44.0956 32.4112 43.4741 31.7897C43.4328 31.7484 36.3059 23.0475 36.3059 23.0475L31.0025 28.3509L39.7034 35.5594C40.2837 36.2222 42.5206 35.8912 42.5206 35.8912L44.3019 37.5075L45.545 36.2644L43.8462 34.5656Z" fill="white"/>
</svg>
