<svg width="64" height="64" viewBox="0 0 64 64" fill="none" xmlns="http://www.w3.org/2000/svg">
<path d="M32 0C18.7 0 8 10.7 8 24C8 29.2 9.7 34 12.6 37.9C12.6 38 12.6 38.1 12.7 38.2L28.7 62.2C29.4 63.3 30.7 64 32 64C33.3 64 34.6 63.3 35.3 62.2L51.3 38.2C51.4 38.1 51.4 38 51.4 37.9C54.3 34 56 29.2 56 24C56 10.7 45.3 0 32 0ZM32 32C27.6 32 24 28.4 24 24C24 19.6 27.6 16 32 16C36.4 16 40 19.6 40 24C40 28.4 36.4 32 32 32Z" fill="#ECCD1E"/>
<path fill-rule="evenodd" clip-rule="evenodd" d="M42 13V35H22V13H42Z" fill="#ECCD1E"/>
<path d="M23.25 10V17.5H27V13.75H41.25V36.25H27V32.5H23.25V40H45V10H23.25ZM30 17.5V22.75H18V27.25H30V32.5L39 25L30 17.5Z" fill="white"/>
</svg>
