<svg width="64" height="64" viewBox="0 0 64 64" fill="none" xmlns="http://www.w3.org/2000/svg">
<path d="M32 0C18.7 0 8 10.7 8 24C8 29.2 9.7 34 12.6 37.9C12.6 38 12.6 38.1 12.7 38.2L28.7 62.2C29.4 63.3 30.7 64 32 64C33.3 64 34.6 63.3 35.3 62.2L51.3 38.2C51.4 38.1 51.4 38 51.4 37.9C54.3 34 56 29.2 56 24C56 10.7 45.3 0 32 0ZM32 32C27.6 32 24 28.4 24 24C24 19.6 27.6 16 32 16C36.4 16 40 19.6 40 24C40 28.4 36.4 32 32 32Z" fill="#FF4000"/>
<path fill-rule="evenodd" clip-rule="evenodd" d="M42 13V35H22V13H42Z" fill="#FF4000"/>
<g clip-path="url(#clip0_1_29)">
<path d="M46.625 21.125C46.625 20.8438 46.4375 20.6563 46.25 20.4688C46.0625 20.375 45.7812 20.375 45.5 20.375C39.875 21.7813 33.5 21.7813 27.875 20.375C27.5938 20.2813 27.3125 20.375 27.125 20.4688C26.9375 20.5625 26.75 20.8438 26.75 21.125C26.5625 22.4375 26.375 23.8438 26.375 25.1563C26.375 33.875 30.9688 41 36.6875 41C42.4062 41 47 33.875 47 25.1563C47 23.8438 46.9063 22.5313 46.625 21.125ZM31.0625 30.6875C30.5 30.6875 30.125 30.3125 30.125 29.75C30.125 28.1562 31.3437 26.9375 32.9375 26.9375C34.5313 26.9375 35.75 28.1562 35.75 29.75C35.75 30.3125 35.375 30.6875 34.8125 30.6875C34.25 30.6875 33.875 30.3125 33.875 29.75C33.875 29.1875 33.5 28.8125 32.9375 28.8125C32.375 28.8125 32 29.1875 32 29.75C32 30.3125 31.625 30.6875 31.0625 30.6875ZM36.6875 37.25C34.25 37.25 32.1875 35.2812 32 32.6562C32 32.2813 32.1875 32 32.4688 31.8125C32.75 31.625 33.125 31.625 33.5 31.8125C35.2813 32.9375 38.1875 32.9375 39.9688 31.8125C40.25 31.625 40.625 31.625 41 31.8125C41.2813 32 41.4688 32.375 41.4688 32.6562C41.1875 35.2812 39.125 37.25 36.6875 37.25ZM42.3125 30.6875C41.75 30.6875 41.375 30.3125 41.375 29.75C41.375 29.1875 41 28.8125 40.4375 28.8125C39.875 28.8125 39.5 29.1875 39.5 29.75C39.5 30.3125 39.125 30.6875 38.5625 30.6875C38 30.6875 37.625 30.3125 37.625 29.75C37.625 28.1562 38.8437 26.9375 40.4375 26.9375C42.0313 26.9375 43.25 28.1562 43.25 29.75C43.25 30.3125 42.875 30.6875 42.3125 30.6875Z" fill="white"/>
<path d="M24.5 26.5625C24.3125 26.6563 24.125 26.75 24.0312 26.8437C23.9375 26.8437 23.75 26.9375 23.5625 26.9375C23.375 26.9375 23.1875 26.9375 23.0938 26.8437C22.8125 26.6562 22.625 26.2812 22.625 25.9062C22.7188 24.3125 23.5625 23 24.6875 22.1562C24.7812 21.6875 24.7812 21.3125 24.875 20.8438C24.9687 20.4687 25.0625 20.0938 25.3437 19.7188C24.7812 20.0938 24.2187 20.375 23.5625 20.375C21.9687 20.375 20.75 19.1563 20.75 17.5625C20.75 17 21.125 16.625 21.6875 16.625C22.25 16.625 22.625 17 22.625 17.5625C22.625 18.125 23 18.5 23.5625 18.5C24.125 18.5 24.5 18.125 24.5 17.5625C24.5 17 24.875 16.625 25.4375 16.625C26 16.625 26.375 17 26.375 17.5625C26.375 18.125 26.1875 18.6875 25.9062 19.1562C26 19.0625 26 19.0625 26.0937 18.9688C26.75 18.5 27.5938 18.4063 28.3438 18.5938H28.4375C28.3437 18.3125 28.25 17.9375 28.25 17.5625C28.25 17 28.625 16.625 29.1875 16.625C29.75 16.625 30.125 17 30.125 17.5625C30.125 18.125 30.5 18.5 31.0625 18.5C31.625 18.5 32 18.125 32 17.5625C32 17 32.375 16.625 32.9375 16.625C33.5 16.625 33.875 17 33.875 17.5625C33.875 18.3125 33.5938 18.875 33.125 19.4375C34.5313 19.5313 35.9375 19.625 37.25 19.625C37.4375 18.4062 37.5312 17.0937 37.5312 15.875C37.5312 14.5625 37.4375 13.1562 37.1562 11.8437C37.1562 11.5625 36.9688 11.375 36.7813 11.1875C36.6875 11 36.4062 11 36.125 11C30.5 12.4062 24.125 12.4062 18.5 11C18.2188 11 17.9375 11 17.75 11.1875C17.5625 11.2813 17.375 11.5625 17.375 11.75C17.0937 13.1563 17 14.4687 17 15.7812C17 23.375 20.5625 29.8438 25.25 31.25C24.875 29.8438 24.5938 28.25 24.5 26.5625Z" fill="white"/>
</g>
<defs>
<clipPath id="clip0_1_29">
<rect width="30" height="30" fill="white" transform="translate(17 11)"/>
</clipPath>
</defs>
</svg>
