<svg width="64" height="64" viewBox="0 0 64 64" fill="none" xmlns="http://www.w3.org/2000/svg">
<path d="M32 0C18.7 0 8 10.7 8 24C8 29.2 9.7 34 12.6 37.9C12.6 38 12.6 38.1 12.7 38.2L28.7 62.2C29.4 63.3 30.7 64 32 64C33.3 64 34.6 63.3 35.3 62.2L51.3 38.2C51.4 38.1 51.4 38 51.4 37.9C54.3 34 56 29.2 56 24C56 10.7 45.3 0 32 0ZM32 32C27.6 32 24 28.4 24 24C24 19.6 27.6 16 32 16C36.4 16 40 19.6 40 24C40 28.4 36.4 32 32 32Z" fill="#FF006F"/>
<path fill-rule="evenodd" clip-rule="evenodd" d="M42 13V35H22V13H42Z" fill="#FF006F"/>
<g clip-path="url(#clip0_1_48)">
<path d="M24 11L22 22C21.7072 23.61 25.563 24.362 25.5 26L25 39C24.9232 40.9986 27 41 27 41C27 41 29.0768 40.9986 29 39L28.5 26C28.4372 24.3648 31.9668 23.6384 32 22L30 11H29L29.5 19L28 20L27.5 11H26.5L26 20L24.5 19L25 11H24ZM41 11C39.5272 11 37.0716 12.3098 36.0898 14.2734C35.2716 15.7462 35 19.0364 35 21V26C35 27.6364 37.1818 28 38 28L37 39C36.819 40.9918 39 41 39 41C39 41 41 41 41 39V11Z" fill="white"/>
</g>
<defs>
<clipPath id="clip0_1_48">
<rect width="30" height="30" fill="white" transform="translate(17 11)"/>
</clipPath>
</defs>
</svg>
