<svg width="31" height="28" viewBox="0 0 31 28" fill="none" xmlns="http://www.w3.org/2000/svg">
<path d="M23.25 7.78883C23.25 7.50758 23.0625 7.32008 22.875 7.13258C22.6875 7.03883 22.4062 7.03883 22.125 7.03883C16.5 8.44508 10.125 8.44508 4.5 7.03883C4.21875 6.94508 3.9375 7.03883 3.75 7.13258C3.5625 7.22633 3.375 7.50758 3.375 7.78883C3.1875 9.10133 3 10.5076 3 11.8201C3 20.5388 7.59375 27.6638 13.3125 27.6638C19.0312 27.6638 23.625 20.5388 23.625 11.8201C23.625 10.5076 23.5313 9.19508 23.25 7.78883ZM7.6875 17.3513C7.125 17.3513 6.75 16.9763 6.75 16.4138C6.75 14.8201 7.96875 13.6013 9.5625 13.6013C11.1563 13.6013 12.375 14.8201 12.375 16.4138C12.375 16.9763 12 17.3513 11.4375 17.3513C10.875 17.3513 10.5 16.9763 10.5 16.4138C10.5 15.8513 10.125 15.4763 9.5625 15.4763C9 15.4763 8.625 15.8513 8.625 16.4138C8.625 16.9763 8.25 17.3513 7.6875 17.3513ZM13.3125 23.9138C10.875 23.9138 8.8125 21.9451 8.625 19.3201C8.625 18.9451 8.8125 18.6638 9.09375 18.4763C9.375 18.2888 9.75 18.2888 10.125 18.4763C11.9063 19.6013 14.8125 19.6013 16.5938 18.4763C16.875 18.2888 17.25 18.2888 17.625 18.4763C17.9063 18.6638 18.0938 19.0388 18.0938 19.3201C17.8125 21.9451 15.75 23.9138 13.3125 23.9138ZM18.9375 17.3513C18.375 17.3513 18 16.9763 18 16.4138C18 15.8513 17.625 15.4763 17.0625 15.4763C16.5 15.4763 16.125 15.8513 16.125 16.4138C16.125 16.9763 15.75 17.3513 15.1875 17.3513C14.625 17.3513 14.25 16.9763 14.25 16.4138C14.25 14.8201 15.4687 13.6013 17.0625 13.6013C18.6563 13.6013 19.875 14.8201 19.875 16.4138C19.875 16.9763 19.5 17.3513 18.9375 17.3513Z" fill="url(#paint0_radial_9_44)"/>
<path d="M24.0938 12C23.9456 12.0008 23.8008 11.9563 23.6786 11.8725C23.5564 11.7888 23.4627 11.6697 23.41 11.5313L22.2428 8.49611C22.2191 8.43494 22.183 8.3794 22.1366 8.33303C22.0903 8.28667 22.0347 8.25051 21.9735 8.22687L18.9375 7.0588C18.7992 7.00572 18.6803 6.91196 18.5964 6.78988C18.5124 6.6678 18.4675 6.52315 18.4675 6.37501C18.4675 6.22688 18.5124 6.08223 18.5964 5.96015C18.6803 5.83807 18.7992 5.7443 18.9375 5.69122L21.9727 4.52404C22.0338 4.5004 22.0894 4.46423 22.1357 4.41787C22.1821 4.3715 22.2183 4.31596 22.2419 4.2548L23.41 1.21876C23.4631 1.08046 23.5568 0.961512 23.6789 0.877604C23.801 0.793697 23.9456 0.748779 24.0938 0.748779C24.2419 0.748779 24.3865 0.793697 24.5086 0.877604C24.6307 0.961512 24.7245 1.08046 24.7776 1.21876L25.9447 4.25392C25.9684 4.31508 26.0045 4.37062 26.0509 4.41699C26.0973 4.46335 26.1528 4.49952 26.214 4.52316L29.2316 5.68419C29.3755 5.73754 29.4995 5.83395 29.5867 5.96028C29.6738 6.08662 29.72 6.23675 29.7188 6.39025C29.7165 6.5358 29.6707 6.67734 29.5871 6.79653C29.5035 6.91572 29.3861 7.00709 29.25 7.0588L26.2149 8.22599C26.1537 8.24963 26.0982 8.28579 26.0518 8.33216C26.0054 8.37852 25.9693 8.43407 25.9456 8.49523L24.7776 11.5313C24.7248 11.6697 24.6311 11.7888 24.5089 11.8725C24.3867 11.9563 24.2419 12.0008 24.0938 12Z" fill="#BB9F44"/>
<path d="M28.25 4.50064C28.185 4.50062 28.1216 4.48091 28.068 4.44411C28.0145 4.40731 27.9733 4.35515 27.95 4.2945L27.4911 3.10166C27.4831 3.08064 27.4707 3.06155 27.4547 3.04563C27.4388 3.02971 27.4197 3.01731 27.3987 3.00924L26.2059 2.55035C26.1453 2.52699 26.0932 2.48584 26.0564 2.43229C26.0197 2.37874 26 2.31532 26 2.25038C26 2.18543 26.0197 2.12201 26.0564 2.06847C26.0932 2.01492 26.1453 1.97376 26.2059 1.95041L27.3987 1.49152C27.4197 1.48345 27.4388 1.47105 27.4547 1.45513C27.4707 1.43921 27.4831 1.42012 27.4911 1.3991L27.9466 0.214698C27.9674 0.158689 28.003 0.109364 28.0496 0.0719688C28.0962 0.0345737 28.152 0.0105075 28.2112 0.00233016C28.2823 -0.00627807 28.3543 0.00911166 28.4157 0.0460569C28.477 0.0830021 28.5243 0.139386 28.55 0.20626L29.0089 1.3991C29.0169 1.42012 29.0293 1.43921 29.0453 1.45513C29.0612 1.47105 29.0803 1.48345 29.1013 1.49152L30.2941 1.95041C30.3547 1.97376 30.4068 2.01492 30.4436 2.06847C30.4803 2.12201 30.5 2.18543 30.5 2.25038C30.5 2.31532 30.4803 2.37874 30.4436 2.43229C30.4068 2.48584 30.3547 2.52699 30.2941 2.55035L29.1013 3.00924C29.0803 3.01731 29.0612 3.02971 29.0453 3.04563C29.0293 3.06155 29.0169 3.08064 29.0089 3.10166L28.55 4.2945C28.5267 4.35515 28.4855 4.40731 28.432 4.44411C28.3784 4.48091 28.315 4.50062 28.25 4.50064Z" fill="#BB9F44"/>
<defs>
<radialGradient id="paint0_radial_9_44" cx="0" cy="0" r="1" gradientUnits="userSpaceOnUse" gradientTransform="translate(8.5 23.5) rotate(-46.3972) scale(29 28.9455)">
<stop offset="0.612396" stop-color="#86AD3C"/>
<stop offset="0.996268" stop-color="#2F3D16"/>
<stop offset="1" stop-color="#374719"/>
</radialGradient>
</defs>
</svg>
