<svg width="64" height="64" viewBox="0 0 64 64" fill="none" xmlns="http://www.w3.org/2000/svg">
<path d="M32 0C18.7 0 8 10.7 8 24C8 29.2 9.7 34 12.6 37.9C12.6 38 12.6 38.1 12.7 38.2L28.7 62.2C29.4 63.3 30.7 64 32 64C33.3 64 34.6 63.3 35.3 62.2L51.3 38.2C51.4 38.1 51.4 38 51.4 37.9C54.3 34 56 29.2 56 24C56 10.7 45.3 0 32 0ZM32 32C27.6 32 24 28.4 24 24C24 19.6 27.6 16 32 16C36.4 16 40 19.6 40 24C40 28.4 36.4 32 32 32Z" fill="#C50000"/>
<path fill-rule="evenodd" clip-rule="evenodd" d="M42 13V35H22V13H42Z" fill="#C50000"/>
<path d="M41.5032 24.2671L38.015 22.047C37.791 21.9044 37.5277 21.5397 37.4628 21.2821L36.4993 17.4623C36.4974 17.4543 36.4939 17.4474 36.4917 17.4394C36.4058 17.0028 36.0211 16.672 35.5595 16.672H30.8613C30.6313 16.672 30.4228 16.7576 30.2584 16.8938C30.2369 16.9068 30.2131 16.9182 30.1931 16.9325L26.8473 19.3063C26.4648 19.5775 26.2329 20.1513 26.3191 20.6126L27.3545 26.1441C27.4432 26.619 27.8932 26.991 28.3789 26.991L28.9102 26.9625C29.1659 26.9482 29.4013 26.8288 29.556 26.6352C29.7106 26.4416 29.7746 26.1856 29.7318 25.9327L29.0094 21.6664C28.9714 21.4428 29.1064 21.1199 29.292 20.989L29.9111 20.5537V26.9587L29.7853 30.4427C29.7708 30.8435 29.581 31.4708 29.3706 31.8127L26.2076 36.9516C26.0422 37.2203 26.006 37.5276 26.109 37.7947C26.212 38.0618 26.4446 38.2656 26.7478 38.3536L27.7379 38.642C27.8491 38.6743 27.9667 38.6908 28.0877 38.6908C28.581 38.6908 29.0699 38.4186 29.3037 38.013L32.3195 32.7921C32.5698 32.3586 32.8039 31.6293 32.8524 31.1312L33.1306 28.2771H33.8349L34.9135 31.038C35.0589 31.4106 35.1299 32.0595 35.0681 32.455L34.2123 37.9253C34.1663 38.219 34.2367 38.4924 34.41 38.6952C34.5779 38.8916 34.8241 38.9997 35.1032 38.9997C35.1533 38.9997 35.2046 38.9962 35.2579 38.9889L36.2787 38.8473C36.8712 38.7649 37.3937 38.2358 37.4685 37.6423L38.1592 32.159C38.2219 31.6613 38.1491 30.8977 37.9935 30.4205L36.5103 25.8782V24.1695L40.2611 26.3291C40.4056 26.4121 40.5704 26.4562 40.738 26.4562C41.0764 26.4562 41.3939 26.2778 41.5665 25.9907L41.8127 25.581C42.0805 25.1352 41.9414 24.5459 41.5032 24.2671Z" fill="white"/>
<path d="M32.8936 15.8666C34.7867 15.8666 36.3269 14.3265 36.3269 12.4333C36.3269 10.5402 34.7867 9 32.8936 9C31.0004 9 29.4606 10.5402 29.4606 12.4333C29.4606 14.3265 31.0007 15.8666 32.8936 15.8666Z" fill="white"/>
</svg>
